# xmcd CD database file
#
# Track frame offsets:
#	150
#	18985
#	37002
#
# Disc length: 949 seconds
#
# Revision: 1
# Processed by: cddbd v1.4PL0 Copyright (c) Steve Scherf et al.
# Submitted via: jetAudio 5
#
DISCID=1c03b303
DTITLE=Ricky Martin and Christina Aguilera - Nobody Wants To Be Lonely
DYEAR=2001
DGENRE=Pop
TTITLE0=Nobody Wants To Be Lonely(Duet Radio edit)
TTITLE1=Solo Quiro Amarte (Nobody Wants To Be Lonely) (Radio edit)
TTITLE2=Solo Quiro Amarte (Nobody Wants To Be Lonely
EXTD=
EXTT0=
EXTT1=
EXTT2=
PLAYORDER=
